<mxfile host="app.diagrams.net" modified="2023-06-03T06:54:08.013Z" agent="Mozilla/5.0 (Windows NT 10.0; Win64; x64) AppleWebKit/537.36 (KHTML, like Gecko) Chrome/114.0.0.0 Safari/537.36" etag="ePDM9oihb_eAlXP0hMAA" version="21.3.6" type="device">
  <diagram name="Page-1" id="do2k56PulVE4F15u68lB">
    <mxGraphModel dx="1276" dy="567" grid="1" gridSize="10" guides="1" tooltips="1" connect="1" arrows="1" fold="1" page="1" pageScale="1" pageWidth="850" pageHeight="1100" math="0" shadow="0">
      <root>
        <mxCell id="0" />
        <mxCell id="1" parent="0" />
        <mxCell id="nb0loJy-b5XSA_ACuRS2-1" value="VendingMachine" style="swimlane;fontStyle=1;align=center;verticalAlign=top;childLayout=stackLayout;horizontal=1;startSize=26;horizontalStack=0;resizeParent=1;resizeParentMax=0;resizeLast=0;collapsible=1;marginBottom=0;whiteSpace=wrap;html=1;" parent="1" vertex="1">
          <mxGeometry x="340" y="90" width="210" height="230" as="geometry" />
        </mxCell>
        <mxCell id="nb0loJy-b5XSA_ACuRS2-2" value="-productName: String&lt;br&gt;-productPrice: double&lt;br&gt;-productQuantity: int&lt;br&gt;-totalCredit: double&lt;br&gt;-totalBalance: double&lt;br&gt;-totalChange: double&lt;br&gt;" style="text;strokeColor=none;fillColor=none;align=left;verticalAlign=top;spacingLeft=4;spacingRight=4;overflow=hidden;rotatable=0;points=[[0,0.5],[1,0.5]];portConstraint=eastwest;whiteSpace=wrap;html=1;" parent="nb0loJy-b5XSA_ACuRS2-1" vertex="1">
          <mxGeometry y="26" width="210" height="114" as="geometry" />
        </mxCell>
        <mxCell id="nb0loJy-b5XSA_ACuRS2-3" value="" style="line;strokeWidth=1;fillColor=none;align=left;verticalAlign=middle;spacingTop=-1;spacingLeft=3;spacingRight=3;rotatable=0;labelPosition=right;points=[];portConstraint=eastwest;strokeColor=inherit;" parent="nb0loJy-b5XSA_ACuRS2-1" vertex="1">
          <mxGeometry y="140" width="210" height="8" as="geometry" />
        </mxCell>
        <mxCell id="nb0loJy-b5XSA_ACuRS2-4" value="+enterMoney(money: double) : void&lt;br&gt;+changeBack(): double&lt;br&gt;+vendItem(): void&lt;br&gt;+toString(): String" style="text;strokeColor=none;fillColor=none;align=left;verticalAlign=top;spacingLeft=4;spacingRight=4;overflow=hidden;rotatable=0;points=[[0,0.5],[1,0.5]];portConstraint=eastwest;whiteSpace=wrap;html=1;" parent="nb0loJy-b5XSA_ACuRS2-1" vertex="1">
          <mxGeometry y="148" width="210" height="82" as="geometry" />
        </mxCell>
      </root>
    </mxGraphModel>
  </diagram>
</mxfile>
